<svg xmlns="http://www.w3.org/2000/svg" viewBox="0 0 512 512">
  <defs>
    <radialGradient id="maskBg" cx="50%" cy="35%" r="75%">
      <stop offset="0%" stop-color="#1e3a8a" />
      <stop offset="100%" stop-color="#020617" />
    </radialGradient>
    <linearGradient id="maskAccent" x1="0%" y1="0%" x2="100%" y2="100%">
      <stop offset="0%" stop-color="#38bdf8" />
      <stop offset="100%" stop-color="#4ade80" />
    </linearGradient>
  </defs>
  <rect width="512" height="512" fill="url(#maskBg)" />
  <rect x="96" y="96" width="320" height="320" rx="72" fill="#0f172a" stroke="#475569" stroke-width="14" />
  <path d="M170 170h58v22h-36v36h-22zm114 0h58v58h-22v-36h-36zm-114 150h22v36h36v22h-58zm150 0h22v58h-58v-22h36z" fill="#f8fafc" />
  <rect x="210" y="210" width="32" height="32" rx="5" fill="url(#maskAccent)" />
  <rect x="258" y="210" width="24" height="24" rx="5" fill="#38bdf8" />
  <rect x="298" y="210" width="32" height="32" rx="5" fill="url(#maskAccent)" />
  <rect x="210" y="258" width="24" height="24" rx="5" fill="#38bdf8" />
  <rect x="250" y="250" width="40" height="40" rx="5" fill="#f8fafc" />
  <rect x="306" y="258" width="24" height="24" rx="5" fill="#38bdf8" />
  <rect x="210" y="298" width="32" height="32" rx="5" fill="url(#maskAccent)" />
  <rect x="258" y="306" width="24" height="24" rx="5" fill="#38bdf8" />
  <rect x="298" y="298" width="32" height="32" rx="5" fill="url(#maskAccent)" />
</svg>
