<svg xmlns="http://www.w3.org/2000/svg" viewBox="0 0 512 512">
  <defs>
    <linearGradient id="bg" x1="0%" y1="0%" x2="100%" y2="100%">
      <stop offset="0%" stop-color="#0f172a" />
      <stop offset="100%" stop-color="#1d4ed8" />
    </linearGradient>
    <linearGradient id="accent" x1="0%" y1="0%" x2="100%" y2="100%">
      <stop offset="0%" stop-color="#38bdf8" />
      <stop offset="100%" stop-color="#22c55e" />
    </linearGradient>
  </defs>
  <rect width="512" height="512" rx="112" fill="url(#bg)" />
  <rect x="104" y="104" width="304" height="304" rx="56" fill="#0b1220" stroke="#334155" stroke-width="12" />
  <path d="M176 176h48v20h-28v28h-20zm112 0h48v48h-20v-28h-28zm-112 140h20v28h28v20h-48zm140 0h20v48h-48v-20h28z" fill="#e2e8f0" />
  <rect x="202" y="202" width="28" height="28" rx="4" fill="url(#accent)" />
  <rect x="246" y="202" width="20" height="20" rx="4" fill="#38bdf8" />
  <rect x="282" y="202" width="28" height="28" rx="4" fill="url(#accent)" />
  <rect x="202" y="246" width="20" height="20" rx="4" fill="#38bdf8" />
  <rect x="238" y="238" width="36" height="36" rx="4" fill="#f8fafc" />
  <rect x="290" y="246" width="20" height="20" rx="4" fill="#38bdf8" />
  <rect x="202" y="282" width="28" height="28" rx="4" fill="url(#accent)" />
  <rect x="246" y="290" width="20" height="20" rx="4" fill="#38bdf8" />
  <rect x="282" y="282" width="28" height="28" rx="4" fill="url(#accent)" />
  <circle cx="378" cy="146" r="26" fill="#22c55e" />
  <path d="M366 146l8 8 16-18" fill="none" stroke="#f8fafc" stroke-width="10" stroke-linecap="round" stroke-linejoin="round" />
</svg>
